<svg xmlns="http://www.w3.org/2000/svg" height="16" width="16"><rect id="backgroundrect" width="100%" height="100%" x="0" y="0" fill="none" stroke="none"/><g class="currentLayer" style=""><title>Layer 1</title><path d="m14,0.999975585937591 c-3.1667,0 -5.1045,0.8540000000000001 -6.082,2.3203 c-0.9775699999999999,1.4664000000000001 -0.9179700000000001,3.1797 -0.9179700000000001,4.6797 s-0.059601000000000015,2.7867 -0.58203,3.5703 c-0.52243,0.7837000000000001 -1.5846,1.4297 -4.418,1.4297 a1.0001,1.0001 0 1 0 0,2 c3.1667,0 5.1045,-0.8539000000000001 6.082,-2.3203 c0.9775699999999999,-1.4663 0.9179700000000001,-3.1797 0.9179700000000001,-4.6797 s0.059601000000000015,-2.7866 0.58203,-3.5703 c0.52243,-0.7836000000000001 1.5846,-1.4297 4.418,-1.4297 a1.0001,1.0001 0 1 0 0,-2 z" fill="#d8a847" fill-rule="evenodd" id="svg_1" class="selected" fill-opacity="1"/></g></svg>