<svg xmlns="http://www.w3.org/2000/svg" height="16" width="16"><rect id="backgroundrect" width="100%" height="100%" x="0" y="0" fill="none" stroke="none"/><g class="currentLayer" style=""><title>Layer 1</title><path d="m13 1a2 2 0 0 0 -2 2 2 2 0 0 0 .84961 1.6328c-.19239.88508-.55317 1.3394-.98633 1.6426-.64426.451-1.7129.60547-2.9629.73047s-2.6814.22053-3.9121 1.082c-.89278.62493-1.5321 1.6522-1.8184 3.0957a2 2 0 0 0 -1.1699 1.8164 2 2 0 0 0 2 2 2 2 0 0 0 2-2 2 2 0 0 0 -.84961-1.6328c.19235-.88496.55306-1.3373.98633-1.6406.64426-.451 1.7129-.60547 2.9629-.73047s2.6814-.22053 3.9121-1.082c.8927-.62488 1.5321-1.6538 1.8184-3.0977a2 2 0 0 0 1.1699-1.8164 2 2 0 0 0 -2-2z" fill="#d8a847" fill-opacity="1" id="svg_1" class="selected"/></g></svg>